<?xml version="1.0" encoding="utf-8"?>
<!-- Generator: Adobe Illustrator 26.0.1, SVG Export Plug-In . SVG Version: 6.00 Build 0)  -->
<svg version="1.1" id="Layer_1" xmlns="http://www.w3.org/2000/svg" xmlns:xlink="http://www.w3.org/1999/xlink" x="0px" y="0px"
	 viewBox="0 0 33 29" style="enable-background:new 0 0 33 29;" xml:space="preserve">
<style type="text/css">
	.st0{fill-rule:evenodd;clip-rule:evenodd;}
</style>
<path class="st0" d="M6.5,11.9c1,2.8,4.7,9,11.7,10.6c1.9-0.7,3.3-1.9,3.1-2.3c-0.1-0.5-2.5-2.7-3.5-2.7c-0.9-0.1-1.5,1.7-1.5,1.7
	c-0.1,0.1-0.4,0.4-0.8,0.3c-0.6-0.1-6.1-2.8-5.8-5.9c1.2-0.6,2-1.4,1.8-1.8c-0.1-0.4-2.3-3.1-3-3.1C7.9,8.5,7.4,9.5,7.1,9.9l0,0
	C6.9,10.2,6.6,11.4,6.5,11.9z"/>
<path d="M18.2,22.4l-0.1,0.3c0.1,0,0.1,0,0.2,0L18.2,22.4z M6.5,11.9l-0.3-0.1c0,0.1,0,0.1,0,0.2L6.5,11.9z M17.9,17.3V17l0,0V17.3z
	 M16.5,19.1l0.2,0.2c0.1-0.1,0.1-0.1,0.1-0.2H16.5z M15.7,19.3l-0.1,0.3l0,0L15.7,19.3z M9.8,13.5l-0.1-0.3
	c-0.1,0.1-0.2,0.1-0.2,0.2L9.8,13.5z M11.6,11.7l0.3-0.1l0,0L11.6,11.7z M8.6,8.6v0.3l0,0V8.6z M7.1,9.9L7.4,10l0,0L7.1,9.9z
	 M7.1,9.9l0.2,0.1l0,0L7.1,9.9z M24.5,6l0.1-0.3h-0.1V6z M25.8,16.1h-0.3v0.1L25.8,16.1z M9.4,8c0,0.2,0.1,0.3,0.3,0.3
	C9.8,8.3,10,8.2,10,8H9.4z M9.7,7.5H9.4l0,0H9.7z M13.7,17c-0.2,0-0.3,0.1-0.3,0.3s0.1,0.3,0.3,0.3V17z M11.5,7.5
	c-0.1-0.1-0.3-0.1-0.4,0C11,7.7,11,7.9,11.1,8L11.5,7.5z M17.7,13.4l-0.2,0.2c0.1,0.1,0.3,0.1,0.4,0L17.7,13.4z M24.4,8
	c0.1-0.1,0.1-0.3,0.1-0.4c-0.1-0.1-0.3-0.1-0.4-0.1L24.4,8z M24.2,16.1c0.1,0.1,0.3,0.1,0.4-0.1c0.1-0.1,0.1-0.3-0.1-0.4L24.2,16.1z
	 M20.7,12.3c-0.1-0.1-0.3-0.1-0.4,0.1c-0.1,0.1-0.1,0.3,0.1,0.4L20.7,12.3z M15.2,12.7c0.1-0.1,0.1-0.3,0-0.4
	c-0.1-0.1-0.3-0.1-0.4,0L15.2,12.7z M11.7,15c-0.1,0.1-0.1,0.3,0,0.4s0.3,0.1,0.4,0L11.7,15z M18.3,22.1
	c-6.9-1.5-10.5-7.5-11.5-10.3L6.2,12c1,2.9,4.8,9.1,12,10.7L18.3,22.1z M21.1,20.1L21.1,20.1c0,0.1-0.1,0.1-0.1,0.2
	c-0.1,0.2-0.3,0.4-0.6,0.6c-0.6,0.4-1.4,0.9-2.2,1.2l0.2,0.6c0.9-0.4,1.8-0.9,2.4-1.3c0.3-0.2,0.6-0.4,0.7-0.7
	c0.1-0.1,0.2-0.2,0.2-0.3c0.1-0.1,0.1-0.2,0.1-0.4L21.1,20.1z M17.9,17.7c0.2,0,0.4,0.1,0.8,0.3c0.4,0.2,0.7,0.5,1.1,0.8
	c0.4,0.3,0.7,0.6,0.9,0.9c0.1,0.1,0.2,0.2,0.3,0.4s0.1,0.1,0.1,0.1l0.6-0.1c0-0.1-0.1-0.2-0.2-0.4c-0.1-0.1-0.2-0.2-0.3-0.4
	c-0.2-0.3-0.6-0.6-1-0.9c-0.4-0.3-0.8-0.6-1.2-0.9c-0.4-0.2-0.7-0.4-1.1-0.4L17.9,17.7z M16.8,19.1L16.8,19.1
	C16.8,19.1,16.8,19.1,16.8,19.1C16.8,19.1,16.8,19.1,16.8,19.1L16.8,19.1c0-0.1,0.1-0.1,0.1-0.2c0.1-0.1,0.1-0.4,0.2-0.6
	c0.1-0.2,0.2-0.4,0.4-0.5c0.1-0.1,0.3-0.2,0.4-0.2V17c-0.3,0-0.6,0.1-0.9,0.3c-0.2,0.2-0.4,0.4-0.6,0.7c-0.1,0.2-0.2,0.4-0.3,0.6
	c-0.1,0.1-0.1,0.2-0.1,0.2V19c0,0,0,0,0,0.1v0.1L16.8,19.1z M15.6,19.6c0.6,0.1,1-0.2,1.1-0.4l-0.5-0.4c0,0.1-0.2,0.2-0.5,0.1
	L15.6,19.6z M9.5,13.5c-0.1,0.9,0.2,1.7,0.7,2.4c0.5,0.7,1.2,1.4,1.9,1.9c0.7,0.6,1.5,1,2.1,1.3c0.3,0.2,0.6,0.3,0.8,0.4
	c0.2,0.1,0.4,0.2,0.5,0.2l0.1-0.6l0,0h-0.1c-0.1,0-0.1-0.1-0.2-0.1c-0.2-0.1-0.4-0.2-0.7-0.4c-0.6-0.3-1.3-0.7-2-1.3
	s-1.4-1.1-1.8-1.8s-0.7-1.3-0.6-2L9.5,13.5z M11.3,11.8c0,0,0,0.1-0.1,0.2c-0.1,0.1-0.1,0.2-0.3,0.4c-0.3,0.3-0.7,0.6-1.3,0.9
	l0.2,0.6c0.6-0.2,1.2-0.6,1.5-1c0.2-0.2,0.4-0.4,0.4-0.6c0.1-0.2,0.1-0.4,0.1-0.6L11.3,11.8z M8.6,8.9L8.6,8.9C8.6,8.9,8.7,9,8.7,9
	C8.8,9,8.9,9.1,9.1,9.3c0.3,0.2,0.6,0.6,0.9,0.9c0.3,0.4,0.6,0.7,0.9,1c0.1,0.1,0.2,0.2,0.3,0.4c0.1,0.1,0.1,0.1,0.1,0.1v0.1l0,0
	l0.6-0.2c0-0.1-0.1-0.2-0.2-0.4c-0.1-0.1-0.2-0.2-0.3-0.4c-0.2-0.3-0.6-0.7-0.9-1c-0.4-0.4-0.7-0.7-1-1C9.4,8.6,9.2,8.5,9,8.5
	C8.9,8.3,8.7,8.3,8.6,8.3V8.9z M7.4,10.1c0.1-0.2,0.3-0.6,0.5-0.8C8.1,9,8.3,8.9,8.5,8.9l0.1-0.6C8.1,8.2,7.7,8.6,7.4,8.9
	C7.2,9.2,6.9,9.6,6.9,9.8L7.4,10.1z M7.4,10.1L7.4,10.1L6.9,9.8l0,0L7.4,10.1z M6.8,11.9c0.1-0.2,0.2-0.7,0.2-1
	c0.1-0.4,0.2-0.7,0.3-0.9L6.9,9.8c-0.1,0.2-0.2,0.6-0.4,1c-0.1,0.4-0.2,0.8-0.3,1L6.8,11.9z M11.1,6.3h13.4V5.7H11.1V6.3z M24.4,6.3
	c0.2,0.1,0.5,0.2,0.7,0.4c0.2,0.2,0.4,0.4,0.4,0.5h0.6c0-0.4-0.4-0.8-0.6-1c-0.3-0.2-0.7-0.4-0.9-0.4L24.4,6.3z M25.5,7.2v9h0.6v-9
	H25.5z M25.6,16.2c0.1,0.2,0.1,0.4-0.1,0.5c-0.1,0.1-0.4,0.3-1,0.3v0.6c0.7,0,1.2-0.2,1.5-0.6c0.2-0.4,0.2-0.7,0.2-1L25.6,16.2z
	 M10,8V7.5H9.4V8L10,8L10,8z M10,7.5c0-0.2,0.1-0.5,0.3-0.8c0.2-0.2,0.4-0.4,0.9-0.4V5.7c-0.6,0-1,0.3-1.4,0.7
	C9.5,6.7,9.4,7.2,9.4,7.5L10,7.5z M24.5,17H13.7v0.6h10.7C24.5,17.7,24.5,17,24.5,17z M11.1,8l6.4,5.6l0.4-0.4l-6.4-5.7L11.1,8z
	 M17.9,13.6L24.4,8L24,7.5l-6.5,5.6L17.9,13.6z M24.5,15.6l-3.8-3.3l-0.4,0.5l3.8,3.3L24.5,15.6z M14.9,12.3L11.7,15l0.4,0.5
	l3.1-2.7L14.9,12.3z"/>
</svg>
