<?xml version="1.0" encoding="utf-8"?>
<!-- Generator: Adobe Illustrator 26.0.1, SVG Export Plug-In . SVG Version: 6.00 Build 0)  -->
<svg version="1.1" id="Layer_1" xmlns="http://www.w3.org/2000/svg" xmlns:xlink="http://www.w3.org/1999/xlink" x="0px" y="0px"
	 viewBox="0 0 25 34" style="enable-background:new 0 0 25 34;" xml:space="preserve">
<style type="text/css">
	.st0{fill-rule:evenodd;clip-rule:evenodd;fill:#231F20;}
</style>
<path class="st0" d="M7.9,6.7H7.7L7.7,6.8L4.9,9.6L4.8,9.7v0.1V27v0.3h0.3h14.4h0.3V27V7V6.7h-0.3H7.9z M7.6,9.5V7.7L5.8,9.5H7.6z
	 M7.9,10.1H5.4v16.6h13.8V7.3h-11v2.6v0.3H7.9z M7.1,17.5h10.5v-0.6H7.1V17.5z M7.1,20h10.4v-0.6H7.1V20z M17.6,22.2H7v-0.6h10.6
	V22.2z M7,24.7h5.4v-0.6H7V24.7z M17.2,14.3h-5.1c0-0.9,0.7-2,1.6-2c0.2,0.7,1.5,1,2,0C17.1,13.1,17.2,14,17.2,14.3z M14.6,11.7
	c0.8,0,1.4-0.6,1.4-1.4s-0.6-1.4-1.4-1.4c-0.8,0-1.4,0.6-1.4,1.4C13.2,11.1,13.8,11.7,14.6,11.7z"/>
</svg>
