<?xml version="1.0" encoding="utf-8"?>
<!-- Generator: Adobe Illustrator 26.0.1, SVG Export Plug-In . SVG Version: 6.00 Build 0)  -->
<svg version="1.1" id="Layer_1" xmlns="http://www.w3.org/2000/svg" xmlns:xlink="http://www.w3.org/1999/xlink" x="0px" y="0px"
	 viewBox="0 0 24 24" style="enable-background:new 0 0 24 24;" xml:space="preserve">
<style type="text/css">
	.st0{fill:#231F20;}
</style>
<path class="st0" d="M14.5,11.4c1.1,0,1.9-0.8,1.9-1.9s-0.8-1.9-1.9-1.9s-1.9,0.8-1.9,1.9S13.5,11.4,14.5,11.4z M9.5,11.4
	c1.1,0,1.9-0.8,1.9-1.9s-0.8-1.9-1.9-1.9S7.5,8.4,7.5,9.5S8.4,11.4,9.5,11.4z M9.5,12.6C8,12.6,5,13.4,5,14.9v1.6h8.9v-1.6
	C13.9,13.4,10.9,12.6,9.5,12.6z M14.5,12.6c-0.2,0-0.4,0-0.6,0.1c0.8,0.5,1.3,1.3,1.3,2.2v1.6H19v-1.6C19,13.4,16,12.6,14.5,12.6z"
	/>
</svg>
